<?xml version="1.0" encoding="UTF-8" standalone="no"?><!DOCTYPE svg PUBLIC "-//W3C//DTD SVG 1.1//EN" "http://www.w3.org/Graphics/SVG/1.1/DTD/svg11.dtd"><svg width="100%" height="100%" viewBox="0 0 1600 2134" version="1.1" xmlns="http://www.w3.org/2000/svg" xmlns:xlink="http://www.w3.org/1999/xlink" xml:space="preserve" xmlns:serif="http://www.serif.com/" style="fill-rule:evenodd;clip-rule:evenodd;stroke-linejoin:round;stroke-miterlimit:2;"><path d="M1400,0l-1200,0c-106.75,0 -200,93.25 -200,200l0,1733.33c0,106.667 93.25,200 200,200l1200,0c106.75,0 200,-93.25 200,-200l0,-1733.33c0,-106.75 -93.333,-200 -200,-200Zm-1133.33,866.667c-0,-36.667 30,-66.667 66.666,-66.667l133.334,0c36.666,0 66.666,30 66.666,66.667l0,133.333c0,36.667 -30,66.667 -66.666,66.667l-133.334,-0c-36.666,-0 -66.666,-30 -66.666,-66.667l-0,-133.333Zm-0,400c-0,-36.667 30,-66.667 66.666,-66.667l133.334,0c36.666,0 66.666,30 66.666,66.667l0,133.333c0,36.667 -30,66.667 -66.666,66.667l-133.334,-0c-36.666,-0 -66.666,-30 -66.666,-66.667l-0,-133.333Zm666.666,533.333c0,36.671 -29.995,66.667 -66.666,66.667l-533.334,-0c-36.666,-0 -66.666,-30 -66.666,-66.667l-0,-133.333c-0,-36.667 30,-66.667 66.666,-66.667l533.334,0c36.671,0 66.666,29.996 66.666,66.667l0,133.333Zm0,-400c0,36.671 -29.995,66.667 -66.666,66.667l-133.334,-0c-36.666,-0 -66.666,-30 -66.666,-66.667l-0,-133.333c-0,-36.667 30,-66.667 66.666,-66.667l133.334,0c36.666,0 66.666,30 66.666,66.667l0,133.333Zm0,-400c0,36.667 -30,66.667 -66.666,66.667l-133.334,-0c-36.666,-0 -66.666,-30 -66.666,-66.667l-0,-133.333c-0,-36.667 30,-66.667 66.666,-66.667l133.334,0c36.666,0 66.666,30 66.666,66.667l0,133.333Zm400,800c0,36.671 -29.995,66.667 -66.666,66.667l-133.334,-0c-36.662,-0 -66.666,-29.996 -66.666,-66.667l-0,-133.333c-0,-36.671 30.004,-66.667 66.666,-66.667l133.334,0c36.671,0 66.666,29.996 66.666,66.667l0,133.333Zm0,-400c0,36.671 -29.995,66.667 -66.666,66.667l-133.334,-0c-36.662,-0 -66.666,-29.996 -66.666,-66.667l-0,-133.333c-0,-36.667 30,-66.667 66.666,-66.667l133.334,0c36.666,0 66.666,30 66.666,66.667l0,133.333Zm0,-400c0,36.667 -30,66.667 -66.666,66.667l-133.334,-0c-36.666,-0 -66.666,-30 -66.666,-66.667l-0,-133.333c-0,-36.667 30,-66.667 66.666,-66.667l133.334,0c36.666,0 66.666,30 66.666,66.667l0,133.333Zm0,-400c0,36.667 -30,66.667 -66.666,66.667l-933.334,-0c-36.666,-0 -66.666,-30 -66.666,-66.667l-0,-266.667c-0,-36.666 30,-66.666 66.666,-66.666l933.334,-0c36.666,-0 66.666,30 66.666,66.666l0,266.667Z" style="fill:#fff;fill-rule:nonzero;"/></svg>