<?xml version="1.0" encoding="UTF-8" standalone="no"?><!DOCTYPE svg PUBLIC "-//W3C//DTD SVG 1.1//EN" "http://www.w3.org/Graphics/SVG/1.1/DTD/svg11.dtd"><svg width="100%" height="100%" viewBox="0 0 2400 2134" version="1.1" xmlns="http://www.w3.org/2000/svg" xmlns:xlink="http://www.w3.org/1999/xlink" xml:space="preserve" xmlns:serif="http://www.serif.com/" style="fill-rule:evenodd;clip-rule:evenodd;stroke-linejoin:round;stroke-miterlimit:2;"><path d="M600,1000c0,-184.167 149.167,-333.333 333.333,-333.333c184.167,-0 333.334,149.166 333.334,333.333c-0,184.167 -149.167,333.333 -333.334,333.333c-184.166,0 -333.333,-149.166 -333.333,-333.333Zm1533.33,-1000c147.084,0 266.667,119.375 266.667,266.667l0,1466.67c0,147.084 -119.583,266.667 -266.667,266.667l-66.666,0l-66.667,133.333l-266.667,0l-66.666,-133.333l-933.334,0l-66.666,133.333l-266.667,0l-66.667,-133.333l-66.666,0c-147.292,0 -266.667,-119.583 -266.667,-266.667l-0,-1466.67c-0,-147.292 119.375,-266.667 266.667,-266.667l1866.67,-0Zm-1200,1666.67c368.334,-0 666.667,-298.334 666.667,-666.667c0,-368.333 -298.333,-666.667 -666.667,-666.667c-368.333,0 -666.666,298.334 -666.666,666.667c-0,368.333 298.333,666.667 666.666,666.667Zm1066.67,-744.584c77.5,-27.5 133.333,-101.666 133.333,-188.75c0,-110.416 -89.583,-200 -200,-200c-110.416,0 -200,89.584 -200,200c0,87.084 55.834,161.25 133.334,188.75l-0,477.917c-0,36.667 30,66.667 66.666,66.667c36.667,-0 66.667,-30 66.667,-66.667l0,-477.917Z" style="fill:#fff;fill-rule:nonzero;"/></svg>